<svg id="svg" version="1.1" xmlns="http://www.w3.org/2000/svg" xmlns:xlink="http://www.w3.org/1999/xlink" width="400" height="446.37681159420293" viewBox="0, 0, 400,446.37681159420293"><g id="svgg"><path id="path0" d="M162.262 112.538 C 161.148 112.804,159.865 113.462,159.242 114.087 C 157.829 115.505,155.357 116.551,151.400 117.406 C 149.640 117.786,147.967 118.162,147.682 118.243 C 147.397 118.323,146.907 119.005,146.592 119.757 C 145.921 121.364,144.428 122.642,142.809 122.998 C 141.486 123.289,140.879 123.917,140.002 125.904 C 139.563 126.898,138.792 127.626,137.391 128.367 C 136.117 129.040,135.217 129.846,134.887 130.609 C 133.741 133.260,133.324 133.792,131.599 134.798 C 130.196 135.616,129.775 136.106,129.684 137.023 C 129.345 140.479,128.236 145.193,127.432 146.600 C 126.929 147.480,126.295 149.370,126.023 150.800 C 125.751 152.230,125.304 153.670,125.029 154.000 C 124.755 154.330,124.205 155.860,123.807 157.400 C 122.359 163.013,121.785 163.430,114.715 164.005 C 107.541 164.589,107.210 164.678,106.572 166.205 C 105.900 167.814,104.011 169.446,102.414 169.797 C 100.804 170.150,100.828 170.086,100.135 175.909 C 98.619 188.635,101.264 194.667,109.000 196.123 C 110.100 196.330,122.790 196.619,137.200 196.766 C 163.332 197.032,163.408 197.035,166.600 197.993 C 172.640 199.807,178.047 199.561,181.073 197.336 C 182.698 196.142,182.650 196.129,183.225 197.900 C 183.493 198.725,184.292 199.969,185.000 200.664 C 186.746 202.379,187.200 204.503,187.200 210.951 C 187.200 217.884,187.949 221.802,189.541 223.200 C 191.272 224.719,191.855 225.905,192.591 229.400 C 193.857 235.406,193.901 235.515,195.196 235.799 C 196.611 236.110,198.230 237.916,198.599 239.594 C 198.897 240.953,199.527 241.400,201.721 241.812 C 202.549 241.967,203.835 242.507,204.578 243.011 L 205.929 243.928 206.687 242.177 C 207.496 240.309,207.507 240.786,206.394 229.853 C 206.057 226.539,205.828 225.711,204.965 224.686 L 203.938 223.465 204.082 216.233 C 204.199 210.323,204.360 208.687,204.961 207.287 L 205.697 205.575 206.644 208.287 C 207.752 211.463,208.364 212.023,210.628 211.937 C 211.736 211.895,212.777 212.168,213.708 212.743 C 214.977 213.528,215.426 214.193,216.632 217.080 C 216.835 217.563,217.620 218.374,218.378 218.881 C 220.477 220.284,221.087 221.739,221.957 227.418 C 222.397 230.287,222.946 233.133,223.178 233.743 C 223.949 235.769,223.317 244.843,222.012 250.498 C 221.796 251.434,221.615 253.450,221.610 254.978 C 221.599 258.082,220.705 259.862,218.197 261.775 C 217.201 262.535,216.769 263.283,216.398 264.888 C 215.623 268.250,214.103 271.325,212.782 272.205 C 212.125 272.642,211.365 273.525,211.093 274.167 C 209.518 277.891,208.982 278.609,207.103 279.506 C 205.773 280.142,205.041 280.800,204.658 281.706 C 203.954 283.369,202.732 284.444,200.685 285.200 C 199.457 285.654,198.795 286.252,198.023 287.602 C 197.156 289.120,196.486 289.654,193.713 291.036 C 191.907 291.935,189.642 293.396,188.681 294.283 C 186.619 296.184,185.634 296.544,179.800 297.536 C 177.022 298.008,174.609 298.685,173.254 299.372 L 171.108 300.460 168.197 299.812 C 162.091 298.454,161.375 296.673,161.032 282.005 C 160.714 268.421,160.027 262.800,158.685 262.800 C 157.778 262.800,156.100 260.703,155.291 258.557 C 154.461 256.357,149.389 250.809,146.894 249.372 C 146.175 248.958,145.143 247.948,144.599 247.127 C 143.546 245.535,143.106 245.359,137.800 244.400 C 136.260 244.122,133.972 243.579,132.717 243.194 L 130.433 242.494 129.799 244.402 C 129.248 246.063,129.181 248.946,129.283 266.655 C 129.409 288.645,129.358 288.139,131.624 289.478 C 132.967 290.271,134.514 292.727,135.607 295.800 C 136.184 297.425,136.606 297.939,137.859 298.540 C 139.956 299.547,141.094 300.667,141.611 302.234 C 141.910 303.138,142.600 303.876,143.815 304.588 C 148.282 307.206,147.653 317.453,142.887 319.716 C 141.391 320.426,140.824 320.996,140.105 322.510 C 139.441 323.908,138.804 324.596,137.701 325.106 C 136.034 325.877,134.834 327.082,134.813 328.006 C 134.785 329.282,133.292 331.341,131.782 332.186 C 129.423 333.507,129.254 335.098,129.225 356.256 C 129.194 377.872,128.408 375.738,136.200 375.178 C 142.093 374.755,144.600 374.062,145.019 372.739 C 145.311 371.821,149.495 368.928,151.518 368.246 C 152.745 367.832,153.207 367.335,154.200 365.360 C 155.981 361.819,157.362 359.863,158.517 359.245 C 160.137 358.377,160.353 357.245,160.961 346.400 C 161.777 331.843,162.299 330.663,168.403 329.572 C 170.778 329.147,171.682 329.170,174.496 329.722 C 176.313 330.079,178.985 330.557,180.433 330.785 C 183.625 331.288,205.686 331.343,206.220 330.849 C 207.198 329.946,211.136 329.185,216.800 328.805 C 226.817 328.132,229.095 327.712,230.344 326.306 C 231.895 324.561,233.911 323.684,237.872 323.032 C 242.677 322.240,243.901 321.754,246.022 319.796 C 247.785 318.169,248.692 317.736,252.292 316.809 C 253.397 316.525,254.921 315.554,256.684 314.013 C 258.524 312.404,259.960 311.503,261.192 311.183 C 262.186 310.926,263.292 310.639,263.650 310.546 C 264.007 310.454,264.603 309.584,264.974 308.613 C 265.533 307.149,265.967 306.703,267.524 305.996 C 270.527 304.631,270.569 304.601,271.247 303.275 C 272.222 301.369,272.794 300.807,274.648 299.936 C 275.927 299.334,276.546 298.702,277.185 297.343 C 277.685 296.279,278.530 295.271,279.254 294.873 C 281.540 293.617,282.308 292.817,282.570 291.419 C 282.909 289.611,284.511 287.727,285.983 287.404 C 286.992 287.182,287.201 286.888,287.569 285.169 C 288.203 282.214,290.117 278.719,291.563 277.876 C 293.065 277.000,293.806 275.626,294.136 273.102 C 294.445 270.739,295.998 267.616,297.616 266.104 C 298.767 265.028,298.908 264.569,299.818 258.929 C 300.959 251.853,301.928 248.495,303.373 246.599 C 305.218 244.181,305.401 242.042,305.383 223.200 C 305.365 206.039,305.071 201.600,303.951 201.600 C 302.514 201.600,300.712 196.633,299.960 190.600 C 299.281 185.152,298.629 183.238,296.993 181.890 C 296.193 181.231,295.354 180.221,295.128 179.646 C 294.566 178.215,293.200 172.520,293.200 171.608 C 293.200 171.148,292.631 170.587,291.705 170.133 C 288.210 168.419,286.569 161.832,287.934 155.000 C 288.958 149.878,289.073 149.601,291.141 147.267 C 292.093 146.193,293.530 143.828,294.336 142.012 C 295.577 139.212,296.043 138.575,297.400 137.823 C 298.719 137.092,299.120 136.566,299.686 134.826 C 300.491 132.350,300.897 131.801,302.825 130.584 C 306.786 128.084,307.160 116.014,303.277 116.003 C 301.318 115.997,298.548 115.045,297.400 113.983 C 295.436 112.166,294.000 112.004,280.000 112.015 C 264.222 112.027,262.102 112.247,259.239 114.174 C 256.360 116.111,254.379 116.620,245.059 117.814 C 240.627 118.381,236.478 119.015,235.841 119.223 C 235.077 119.471,234.510 119.457,234.180 119.183 C 233.341 118.487,231.239 118.026,225.950 117.380 C 220.225 116.679,213.233 114.870,211.608 113.669 C 211.007 113.225,209.467 112.668,208.185 112.431 C 204.894 111.823,164.874 111.916,162.262 112.538 M173.751 145.128 C 174.165 145.498,174.937 146.482,175.467 147.316 C 175.996 148.149,176.844 148.989,177.350 149.181 C 182.508 151.142,181.382 160.085,175.624 162.891 C 171.499 164.901,164.455 163.525,162.475 160.322 C 159.741 155.897,160.531 150.839,164.251 148.957 C 165.433 148.359,166.400 147.732,166.400 147.565 C 166.400 144.798,171.492 143.110,173.751 145.128 " stroke="none" fill="#10a5e9" fill-rule="evenodd"></path><path id="path1" d="M97.200 186.852 C 97.200 192.961,102.526 199.199,107.742 199.200 C 107.994 199.200,109.190 199.733,110.400 200.384 L 112.600 201.568 136.400 201.602 C 149.836 201.620,160.984 201.801,162.000 202.017 C 162.990 202.226,168.077 202.569,173.305 202.779 C 178.533 202.988,182.988 203.269,183.205 203.403 C 183.750 203.740,183.716 199.252,183.161 197.660 C 182.636 196.153,182.675 196.159,181.073 197.336 C 178.047 199.561,172.640 199.807,166.600 197.993 C 163.408 197.035,163.332 197.032,137.200 196.766 C 103.908 196.427,103.335 196.308,100.551 189.144 C 99.941 187.575,98.279 185.652,97.500 185.614 C 97.335 185.606,97.200 186.163,97.200 186.852 M210.415 211.984 C 209.825 212.131,209.319 212.625,209.154 213.215 C 208.591 215.235,208.702 215.451,210.218 215.274 C 211.974 215.069,213.005 215.904,214.075 218.400 C 214.500 219.390,215.540 220.920,216.388 221.800 C 221.502 227.110,221.469 250.925,216.338 257.647 C 215.514 258.725,214.590 260.700,214.038 262.560 C 213.333 264.935,212.700 266.136,211.357 267.648 C 210.391 268.736,209.600 269.966,209.600 270.381 C 209.600 270.795,209.479 271.449,209.332 271.833 C 209.136 272.344,209.559 272.192,210.902 271.267 C 213.091 269.762,216.202 265.812,216.589 264.048 C 216.752 263.308,217.409 262.376,218.187 261.783 C 220.705 259.862,221.599 258.085,221.610 254.978 C 221.615 253.450,221.796 251.434,222.012 250.498 C 223.317 244.843,223.949 235.769,223.178 233.743 C 222.946 233.133,222.397 230.287,221.957 227.418 C 221.074 221.655,220.479 220.266,218.277 218.830 C 217.242 218.154,216.647 217.381,216.318 216.283 C 215.484 213.501,212.640 211.430,210.415 211.984 " stroke="none" fill="#647c8c" fill-rule="evenodd"></path><path id="path2" d="M269.000 110.411 C 259.577 110.760,256.745 111.258,252.014 113.394 C 242.629 117.631,231.692 117.599,221.572 113.305 C 215.220 110.610,211.007 110.301,183.000 110.481 C 157.342 110.645,157.921 110.588,153.710 113.375 C 152.835 113.954,150.745 115.006,149.065 115.714 C 145.688 117.136,143.913 118.572,137.041 125.438 C 129.917 132.556,127.649 135.299,127.614 136.834 C 127.585 138.123,125.895 142.610,124.847 144.180 C 123.163 146.702,122.800 147.840,122.800 150.598 C 122.800 153.722,121.201 159.084,119.906 160.300 C 118.836 161.306,116.897 161.777,111.200 162.416 C 106.850 162.904,104.799 163.708,103.974 165.248 C 103.745 165.676,102.839 166.546,101.960 167.183 C 98.923 169.383,98.625 170.064,96.803 178.963 C 95.892 183.412,96.444 185.157,99.288 186.814 C 99.922 187.184,99.958 186.969,99.751 184.108 C 99.542 181.213,100.427 171.327,100.975 170.440 C 101.104 170.232,101.751 169.942,102.414 169.797 C 104.011 169.446,105.900 167.814,106.572 166.205 C 107.210 164.678,107.541 164.589,114.715 164.005 C 121.785 163.430,122.359 163.013,123.807 157.400 C 124.205 155.860,124.755 154.330,125.029 154.000 C 125.304 153.670,125.751 152.230,126.023 150.800 C 126.295 149.370,126.929 147.480,127.432 146.600 C 128.236 145.193,129.345 140.479,129.684 137.023 C 129.775 136.106,130.196 135.616,131.599 134.798 C 133.324 133.792,133.741 133.260,134.887 130.609 C 135.217 129.846,136.117 129.040,137.391 128.367 C 138.792 127.626,139.563 126.898,140.002 125.904 C 140.879 123.917,141.486 123.289,142.809 122.998 C 144.428 122.642,145.921 121.364,146.592 119.757 C 146.907 119.005,147.397 118.323,147.682 118.243 C 147.967 118.162,149.640 117.784,151.400 117.403 C 155.487 116.517,157.947 115.471,159.290 114.048 C 161.087 112.144,162.927 112.000,185.393 112.000 C 206.685 112.000,209.602 112.186,211.608 113.669 C 213.233 114.870,220.225 116.679,225.950 117.380 C 231.239 118.026,233.341 118.487,234.180 119.183 C 234.510 119.457,235.077 119.471,235.841 119.223 C 236.478 119.015,240.627 118.381,245.059 117.814 C 254.379 116.620,256.360 116.111,259.239 114.174 C 262.102 112.247,264.222 112.027,280.000 112.015 C 294.000 112.004,295.436 112.166,297.400 113.983 C 298.548 115.045,301.318 115.997,303.277 116.003 C 307.160 116.014,306.786 128.084,302.825 130.584 C 300.897 131.801,300.491 132.350,299.686 134.826 C 299.120 136.566,298.719 137.092,297.400 137.823 C 296.043 138.575,295.577 139.212,294.336 142.012 C 293.530 143.828,292.093 146.193,291.141 147.267 C 289.073 149.601,288.958 149.878,287.934 155.000 C 286.569 161.832,288.210 168.419,291.705 170.133 C 292.631 170.587,293.200 171.148,293.200 171.608 C 293.200 172.520,294.566 178.215,295.128 179.646 C 295.354 180.221,296.193 181.231,296.993 181.890 C 298.629 183.238,299.281 185.152,299.960 190.600 C 300.712 196.633,302.514 201.600,303.951 201.600 C 305.071 201.600,305.365 206.039,305.383 223.200 C 305.401 242.042,305.218 244.181,303.373 246.599 C 301.928 248.495,300.959 251.853,299.818 258.929 C 298.908 264.569,298.767 265.028,297.616 266.104 C 295.998 267.616,294.445 270.739,294.136 273.102 C 293.806 275.626,293.065 277.000,291.563 277.876 C 290.117 278.719,288.203 282.214,287.569 285.169 C 287.201 286.888,286.992 287.182,285.983 287.404 C 284.511 287.727,282.909 289.611,282.570 291.419 C 282.308 292.817,281.540 293.617,279.254 294.873 C 278.530 295.271,277.685 296.279,277.185 297.343 C 276.546 298.702,275.927 299.334,274.648 299.936 C 272.794 300.807,272.222 301.369,271.247 303.275 C 270.569 304.601,270.527 304.631,267.524 305.996 C 265.967 306.703,265.533 307.149,264.974 308.613 C 264.603 309.584,264.007 310.454,263.650 310.546 C 263.292 310.639,262.186 310.926,261.192 311.183 C 259.960 311.503,258.524 312.404,256.684 314.013 C 254.921 315.554,253.397 316.525,252.292 316.809 C 248.692 317.736,247.785 318.169,246.022 319.796 C 243.901 321.754,242.677 322.240,237.872 323.032 C 233.911 323.684,231.895 324.561,230.344 326.306 C 229.095 327.712,226.817 328.132,216.800 328.805 C 211.136 329.185,207.198 329.946,206.220 330.849 C 205.686 331.343,183.625 331.288,180.433 330.785 C 178.985 330.557,176.313 330.079,174.496 329.722 C 171.682 329.170,170.778 329.147,168.403 329.572 C 162.299 330.663,161.777 331.843,160.961 346.400 C 160.353 357.245,160.137 358.377,158.517 359.245 C 157.362 359.863,155.981 361.819,154.200 365.360 C 153.207 367.335,152.745 367.832,151.518 368.246 C 149.495 368.928,145.311 371.821,145.019 372.739 C 144.600 374.062,142.093 374.755,136.200 375.178 C 128.408 375.738,129.194 377.872,129.225 356.256 C 129.254 335.098,129.423 333.507,131.782 332.186 C 133.292 331.341,134.785 329.282,134.813 328.006 C 134.834 327.082,136.034 325.877,137.701 325.106 C 138.804 324.596,139.441 323.908,140.105 322.510 C 140.824 320.996,141.391 320.426,142.887 319.716 C 147.653 317.453,148.282 307.206,143.815 304.588 C 142.600 303.876,141.910 303.138,141.611 302.234 C 141.094 300.667,139.956 299.547,137.859 298.540 C 136.606 297.939,136.184 297.425,135.607 295.800 C 134.514 292.727,132.967 290.271,131.624 289.478 C 129.358 288.139,129.409 288.645,129.283 266.655 C 129.181 248.946,129.248 246.063,129.799 244.402 L 130.433 242.494 132.717 243.194 C 133.972 243.579,136.260 244.122,137.800 244.400 C 143.106 245.359,143.546 245.535,144.599 247.127 C 145.143 247.948,146.175 248.958,146.894 249.372 C 149.389 250.809,154.461 256.357,155.291 258.557 C 156.100 260.703,157.778 262.800,158.685 262.800 C 160.027 262.800,160.714 268.421,161.032 282.005 C 161.375 296.673,162.091 298.454,168.197 299.812 L 171.108 300.460 173.254 299.372 C 174.609 298.685,177.022 298.008,179.800 297.536 C 185.634 296.544,186.619 296.184,188.681 294.283 C 189.642 293.396,191.907 291.935,193.713 291.036 C 196.486 289.654,197.156 289.120,198.023 287.602 C 198.795 286.252,199.457 285.654,200.685 285.200 C 202.732 284.444,203.954 283.369,204.658 281.706 C 205.041 280.800,205.773 280.142,207.103 279.506 C 208.982 278.609,209.518 277.891,211.093 274.167 C 211.365 273.525,212.125 272.642,212.782 272.205 C 213.975 271.410,216.206 267.217,215.909 266.327 C 215.827 266.082,215.107 266.790,214.309 267.902 C 213.510 269.013,212.045 270.481,211.052 271.164 C 209.950 271.922,208.821 273.189,208.154 274.413 C 207.553 275.517,206.472 276.785,205.752 277.230 C 205.031 277.675,203.689 278.938,202.771 280.035 C 201.852 281.132,200.268 282.593,199.250 283.280 C 198.233 283.967,196.387 285.482,195.150 286.646 C 193.912 287.810,191.662 289.366,190.150 290.103 C 188.637 290.841,186.533 292.108,185.474 292.919 C 180.300 296.879,169.760 297.584,166.182 294.209 L 164.800 292.906 164.800 287.040 C 164.800 282.156,164.661 280.761,163.967 278.702 C 163.488 277.281,162.989 274.352,162.793 271.815 C 162.233 264.568,161.471 261.957,159.136 259.277 C 158.502 258.549,157.145 256.511,156.121 254.747 C 154.888 252.626,153.706 251.156,152.629 250.406 C 151.733 249.782,150.190 248.431,149.200 247.403 C 147.178 245.304,145.693 244.444,141.497 242.946 C 139.904 242.378,138.037 241.489,137.349 240.973 C 133.699 238.233,129.290 238.422,128.225 241.363 C 126.891 245.047,126.804 246.399,126.805 263.600 C 126.806 286.265,127.124 288.562,130.909 293.238 C 131.871 294.427,133.156 296.321,133.764 297.448 C 134.425 298.670,135.577 299.994,136.624 300.732 C 137.589 301.412,138.998 302.831,139.755 303.884 C 140.512 304.938,141.684 306.208,142.359 306.707 C 144.530 308.311,144.893 309.507,144.203 312.786 L 143.608 315.615 138.668 320.507 C 135.951 323.198,133.141 326.345,132.422 327.500 C 131.704 328.655,130.958 329.600,130.764 329.600 C 130.570 329.600,129.929 330.329,129.339 331.220 C 127.360 334.211,127.122 336.634,126.917 355.844 L 126.730 373.488 127.722 375.444 C 129.634 379.215,131.848 379.646,138.700 377.581 C 146.529 375.221,146.978 375.029,149.089 373.118 C 150.238 372.078,151.858 370.880,152.689 370.456 C 154.435 369.565,155.226 368.746,156.202 366.823 C 156.586 366.066,157.753 364.536,158.795 363.423 C 161.166 360.892,162.318 357.886,162.777 353.032 C 162.967 351.022,163.398 347.942,163.735 346.189 C 164.072 344.435,164.525 341.771,164.743 340.269 C 165.203 337.098,166.247 335.342,168.584 333.812 C 170.344 332.659,170.671 332.660,174.800 333.840 C 177.120 334.504,178.992 334.585,192.200 334.592 L 207.000 334.600 209.600 333.514 C 211.348 332.783,215.248 331.897,221.500 330.808 C 230.589 329.225,233.160 328.528,236.001 326.877 C 236.771 326.429,239.470 325.396,242.000 324.580 C 245.342 323.502,247.217 322.635,248.856 321.411 C 250.098 320.483,252.618 319.130,254.456 318.404 C 256.714 317.512,258.384 316.530,259.600 315.382 C 260.590 314.446,262.312 313.226,263.427 312.671 C 264.566 312.103,266.115 310.854,266.962 309.821 C 267.791 308.809,269.173 307.622,270.032 307.183 C 272.195 306.080,282.365 295.900,284.213 292.988 C 285.047 291.675,286.434 289.989,287.295 289.243 C 288.160 288.493,289.278 286.942,289.793 285.777 C 290.306 284.616,291.623 282.497,292.720 281.067 C 293.920 279.500,295.058 277.427,295.582 275.854 C 296.060 274.418,296.887 272.648,297.419 271.921 C 299.616 268.922,300.009 268.073,300.797 264.617 C 301.713 260.600,302.336 258.711,304.092 254.638 C 306.504 249.044,308.236 233.988,307.862 221.861 C 307.331 204.632,306.632 199.823,303.783 193.801 C 303.221 192.613,302.171 189.294,301.451 186.425 C 300.453 182.458,299.798 180.706,298.713 179.105 C 296.822 176.317,296.212 175.054,295.388 172.217 C 294.871 170.440,294.200 169.318,292.714 167.747 C 288.737 163.542,288.334 155.817,291.862 151.438 C 292.588 150.537,293.982 148.256,294.960 146.368 C 295.939 144.480,297.545 141.992,298.530 140.839 C 299.514 139.686,300.876 137.698,301.556 136.421 C 302.237 135.144,303.405 133.633,304.153 133.063 C 308.707 129.590,310.502 120.702,307.543 116.278 C 304.983 112.451,304.563 112.095,302.260 111.803 C 301.127 111.660,298.760 111.296,297.000 110.995 C 292.874 110.289,279.695 110.015,269.000 110.411 M169.763 144.188 C 168.629 144.665,166.400 146.903,166.400 147.565 C 166.400 147.732,165.433 148.359,164.251 148.957 C 160.531 150.839,159.741 155.897,162.475 160.322 C 164.455 163.525,171.499 164.901,175.624 162.891 C 181.382 160.085,182.508 151.142,177.350 149.181 C 176.844 148.989,175.996 148.149,175.467 147.316 C 173.609 144.392,171.729 143.362,169.763 144.188 M176.199 152.234 L 177.258 153.622 176.379 156.311 C 173.896 163.915,167.727 163.576,164.077 155.635 L 163.082 153.470 164.641 152.101 C 165.498 151.348,167.280 149.967,168.600 149.031 L 171.000 147.330 173.070 149.088 C 174.209 150.055,175.617 151.471,176.199 152.234 M183.614 201.491 C 183.622 202.541,183.886 203.850,184.200 204.400 C 184.552 205.016,184.777 206.559,184.786 208.417 C 184.800 211.492,185.729 219.550,186.444 222.800 C 186.662 223.790,187.580 225.829,188.485 227.332 C 189.390 228.834,190.538 231.309,191.036 232.830 C 192.083 236.024,197.274 242.175,200.200 243.687 C 201.080 244.141,202.675 245.298,203.744 246.257 L 205.688 248.002 207.212 247.145 C 208.530 246.405,208.854 245.920,209.614 243.555 L 210.493 240.821 209.675 237.711 C 208.008 231.378,207.065 218.294,208.126 216.230 C 208.921 214.682,209.630 212.000,209.244 212.000 C 208.392 212.000,207.490 210.711,206.644 208.287 L 205.697 205.575 204.961 207.287 C 204.360 208.687,204.199 210.323,204.082 216.233 L 203.938 223.465 204.965 224.686 C 205.828 225.711,206.057 226.539,206.394 229.853 C 207.507 240.786,207.496 240.309,206.687 242.177 L 205.929 243.928 204.578 243.011 C 203.835 242.507,202.549 241.967,201.721 241.812 C 199.527 241.400,198.897 240.953,198.599 239.594 C 198.230 237.916,196.611 236.110,195.196 235.799 C 193.901 235.515,193.857 235.406,192.591 229.400 C 191.856 225.911,191.273 224.724,189.547 223.200 C 187.961 221.800,187.573 219.770,187.248 211.200 C 186.946 203.209,186.529 201.501,184.566 200.214 L 183.600 199.582 183.614 201.491 " stroke="none" fill="#0c7cac" fill-rule="evenodd"></path><path id="path3" d="M265.200 108.392 C 252.311 108.752,249.898 109.207,247.200 111.786 C 244.000 114.845,229.667 115.121,227.456 112.166 C 224.895 108.742,223.284 108.600,187.000 108.600 C 151.699 108.600,153.417 108.458,150.287 111.638 C 149.228 112.714,147.875 113.702,147.281 113.833 C 144.425 114.464,143.376 115.115,139.091 118.915 C 135.131 122.427,130.658 127.076,127.289 131.185 C 126.788 131.796,126.012 133.624,125.565 135.248 C 124.964 137.427,124.458 138.432,123.631 139.086 C 121.729 140.589,120.773 143.524,120.214 149.573 C 119.430 158.057,118.256 159.301,110.146 160.245 C 104.010 160.959,103.742 161.062,100.999 163.784 C 99.770 165.003,98.632 166.000,98.469 166.000 C 98.006 166.000,96.823 168.197,96.236 170.148 C 95.943 171.122,95.159 172.612,94.495 173.460 C 91.358 177.461,91.313 184.215,94.402 187.402 C 95.218 188.244,95.884 189.691,96.611 192.204 C 97.864 196.531,98.479 197.249,102.158 198.681 C 103.721 199.289,105.316 200.179,105.702 200.659 C 106.087 201.138,107.257 201.951,108.302 202.465 L 110.200 203.400 137.400 203.683 C 181.545 204.142,180.800 204.060,180.800 208.452 C 180.800 210.845,180.956 211.531,181.737 212.562 C 182.882 214.076,183.036 214.696,183.588 220.000 C 184.416 227.971,185.271 230.628,187.545 232.301 C 188.355 232.897,188.916 233.777,189.203 234.901 C 189.966 237.887,190.468 238.786,192.084 240.066 C 192.953 240.755,194.100 242.008,194.632 242.851 C 195.537 244.285,198.085 246.000,199.310 246.000 C 199.608 246.000,200.157 246.640,200.530 247.421 C 202.592 251.747,211.863 250.899,213.824 246.205 C 215.397 242.441,215.052 239.096,212.842 236.676 C 210.953 234.608,210.400 231.591,210.400 223.357 C 210.400 216.572,211.752 213.782,212.602 218.813 C 212.921 220.702,215.629 225.028,216.706 225.370 C 218.397 225.907,219.161 234.881,218.429 245.600 C 217.922 253.020,217.881 253.183,216.268 254.200 C 214.915 255.054,213.425 257.703,213.006 260.000 C 212.337 263.672,211.982 264.401,210.366 265.422 C 209.107 266.216,208.477 267.064,207.417 269.390 C 205.898 272.724,199.475 279.504,194.689 282.828 C 193.320 283.778,192.033 284.836,191.828 285.178 C 190.937 286.670,189.104 287.895,186.813 288.533 C 185.026 289.029,183.830 289.692,182.473 290.936 C 179.531 293.634,172.149 294.989,169.933 293.237 L 168.866 292.394 168.719 285.497 C 168.585 279.185,168.484 278.380,167.529 276.000 C 166.035 272.279,164.964 268.435,164.037 263.471 C 163.196 258.961,162.310 257.004,160.471 255.588 C 159.882 255.135,158.680 253.486,157.800 251.924 C 156.802 250.152,155.749 248.839,155.000 248.432 C 152.768 247.219,151.600 246.310,151.600 245.785 C 151.600 243.965,145.767 240.800,142.412 240.800 C 141.993 240.800,141.293 240.198,140.818 239.428 C 139.657 237.551,137.283 236.524,133.343 236.196 C 128.063 235.756,125.764 237.186,124.973 241.406 C 124.810 242.274,124.345 243.527,123.940 244.192 C 122.766 246.117,122.805 280.722,123.983 282.376 C 124.461 283.048,125.075 285.225,125.560 287.968 C 126.497 293.280,127.299 295.014,129.506 296.507 C 130.612 297.256,131.298 298.098,131.622 299.107 C 132.258 301.088,133.063 301.958,135.055 302.819 C 136.428 303.411,136.887 303.918,137.741 305.783 C 138.616 307.695,139.042 308.152,140.585 308.835 C 141.583 309.276,142.400 309.739,142.400 309.864 C 142.400 310.767,138.808 315.528,135.938 318.430 C 134.033 320.354,131.966 322.797,131.345 323.859 C 130.723 324.920,129.617 326.312,128.887 326.953 C 127.056 328.561,126.554 329.687,125.445 334.673 C 124.916 337.053,124.197 339.990,123.847 341.200 C 122.815 344.763,122.894 373.636,123.941 375.606 C 124.349 376.373,124.902 377.672,125.170 378.493 C 126.890 383.759,137.176 384.767,140.517 379.997 C 140.874 379.487,142.090 379.025,144.224 378.588 C 149.239 377.560,151.061 376.569,152.186 374.257 C 152.415 373.786,153.544 372.950,154.695 372.400 C 156.894 371.348,157.633 370.566,158.270 368.613 C 158.496 367.923,159.398 366.912,160.429 366.194 C 162.674 364.632,163.475 362.992,164.483 357.891 C 164.928 355.641,165.797 352.720,166.413 351.400 C 167.945 348.122,168.800 344.583,168.800 341.517 C 168.800 339.236,168.923 338.832,169.904 337.892 L 171.007 336.835 176.804 337.209 C 197.554 338.548,217.260 337.162,222.057 334.027 C 223.956 332.785,225.942 332.272,231.422 331.608 C 236.599 330.981,238.900 330.217,240.945 328.448 C 242.305 327.270,243.509 326.697,246.062 326.011 C 250.151 324.911,250.591 324.695,252.600 322.790 C 253.682 321.763,255.206 320.919,257.312 320.180 C 260.352 319.113,260.933 318.664,262.883 315.873 C 263.280 315.304,264.141 314.788,264.942 314.637 C 266.743 314.299,268.359 312.996,269.061 311.315 C 269.371 310.573,269.935 309.875,270.313 309.764 C 275.549 308.230,286.800 296.928,286.800 293.202 C 286.800 292.833,287.390 292.347,288.188 292.059 C 289.924 291.431,291.095 289.969,291.661 287.725 C 292.000 286.379,292.463 285.740,293.715 284.893 C 295.664 283.575,296.527 281.997,297.602 277.787 C 298.050 276.034,298.610 274.534,298.847 274.454 C 301.142 273.674,302.564 270.923,303.011 266.400 C 303.385 262.615,303.871 261.382,305.666 259.675 C 307.762 257.680,308.256 255.561,308.807 246.200 C 309.138 240.558,309.486 237.986,310.415 234.312 C 311.954 228.224,312.205 217.071,310.830 215.827 C 309.874 214.962,309.332 211.637,309.001 204.600 C 308.546 194.900,307.582 190.783,305.338 188.942 C 304.464 188.225,304.137 187.335,303.357 183.542 C 302.160 177.719,301.406 175.775,299.920 174.683 C 298.473 173.618,297.399 171.616,297.004 169.249 C 296.782 167.914,296.218 166.960,294.632 165.235 C 290.892 161.167,290.806 156.910,294.393 153.407 C 295.599 152.229,296.226 151.142,296.816 149.209 C 297.699 146.312,298.164 145.563,299.527 144.837 C 300.718 144.202,302.597 141.234,303.670 138.294 C 304.286 136.605,304.755 135.926,305.418 135.760 C 306.787 135.416,307.897 134.014,308.972 131.272 C 309.546 129.807,310.449 128.371,311.185 127.751 C 314.646 124.839,314.605 118.184,311.110 115.448 C 310.391 114.886,309.353 113.582,308.802 112.550 C 307.274 109.689,306.265 109.135,301.928 108.782 C 295.780 108.281,276.509 108.077,265.200 108.392 M297.000 110.995 C 298.760 111.296,301.127 111.660,302.260 111.803 C 304.563 112.095,304.983 112.451,307.543 116.278 C 310.502 120.702,308.707 129.590,304.153 133.063 C 303.405 133.633,302.237 135.144,301.556 136.421 C 300.876 137.698,299.514 139.686,298.530 140.839 C 297.545 141.992,295.939 144.480,294.960 146.368 C 293.982 148.256,292.588 150.537,291.862 151.438 C 288.334 155.817,288.737 163.542,292.714 167.747 C 294.200 169.318,294.871 170.440,295.388 172.217 C 296.212 175.054,296.822 176.317,298.713 179.105 C 299.798 180.706,300.453 182.458,301.451 186.425 C 302.171 189.294,303.221 192.613,303.783 193.801 C 306.632 199.823,307.331 204.632,307.862 221.861 C 308.236 233.988,306.504 249.044,304.092 254.638 C 302.336 258.711,301.713 260.600,300.797 264.617 C 300.009 268.073,299.616 268.922,297.419 271.921 C 296.887 272.648,296.060 274.418,295.582 275.854 C 295.058 277.427,293.920 279.500,292.720 281.067 C 291.623 282.497,290.306 284.616,289.793 285.777 C 289.278 286.942,288.160 288.493,287.295 289.243 C 286.434 289.989,285.047 291.675,284.213 292.988 C 282.365 295.900,272.195 306.080,270.032 307.183 C 269.173 307.622,267.791 308.809,266.962 309.821 C 266.115 310.854,264.566 312.103,263.427 312.671 C 262.312 313.226,260.590 314.446,259.600 315.382 C 258.384 316.530,256.714 317.512,254.456 318.404 C 252.618 319.130,250.098 320.483,248.856 321.411 C 247.217 322.635,245.342 323.502,242.000 324.580 C 239.470 325.396,236.771 326.429,236.001 326.877 C 233.160 328.528,230.589 329.225,221.500 330.808 C 215.248 331.897,211.348 332.783,209.600 333.514 L 207.000 334.600 192.200 334.592 C 178.992 334.585,177.120 334.504,174.800 333.840 C 170.671 332.660,170.344 332.659,168.584 333.812 C 166.247 335.342,165.203 337.098,164.743 340.269 C 164.525 341.771,164.072 344.435,163.735 346.189 C 163.398 347.942,162.967 351.022,162.777 353.032 C 162.318 357.886,161.166 360.892,158.795 363.423 C 157.753 364.536,156.586 366.066,156.202 366.823 C 155.226 368.746,154.435 369.565,152.689 370.456 C 151.858 370.880,150.238 372.078,149.089 373.118 C 147.538 374.522,146.279 375.235,144.200 375.888 C 131.500 379.876,129.948 379.834,127.722 375.444 L 126.730 373.488 126.917 355.844 C 127.122 336.634,127.360 334.211,129.339 331.220 C 129.929 330.329,130.570 329.600,130.764 329.600 C 130.958 329.600,131.704 328.655,132.422 327.500 C 133.141 326.345,135.951 323.198,138.668 320.507 L 143.608 315.615 144.203 312.786 C 144.893 309.507,144.530 308.311,142.359 306.707 C 141.684 306.208,140.512 304.938,139.755 303.884 C 138.998 302.831,137.589 301.412,136.624 300.732 C 135.577 299.994,134.425 298.670,133.764 297.448 C 133.156 296.321,131.871 294.427,130.909 293.238 C 127.124 288.562,126.806 286.265,126.805 263.600 C 126.804 246.399,126.891 245.047,128.225 241.363 C 129.290 238.422,133.699 238.233,137.349 240.973 C 138.037 241.489,139.904 242.378,141.497 242.946 C 145.693 244.444,147.178 245.304,149.200 247.403 C 150.190 248.431,151.733 249.782,152.629 250.406 C 153.706 251.156,154.888 252.626,156.121 254.747 C 157.145 256.511,158.502 258.549,159.136 259.277 C 161.471 261.957,162.233 264.568,162.793 271.815 C 162.989 274.352,163.488 277.281,163.967 278.702 C 164.661 280.761,164.800 282.156,164.800 287.040 L 164.800 292.906 166.182 294.209 C 169.760 297.584,180.300 296.879,185.474 292.919 C 186.533 292.108,188.637 290.841,190.150 290.103 C 191.662 289.366,193.912 287.810,195.150 286.646 C 196.387 285.482,198.233 283.967,199.250 283.280 C 200.268 282.593,201.852 281.132,202.771 280.035 C 203.689 278.938,205.052 277.662,205.799 277.201 C 207.260 276.298,209.600 272.203,209.600 270.549 C 209.600 270.026,210.361 268.770,211.357 267.648 C 212.700 266.136,213.333 264.935,214.038 262.560 C 214.590 260.700,215.514 258.725,216.338 257.647 C 221.472 250.921,221.502 227.099,216.383 221.800 C 215.533 220.920,214.542 219.480,214.181 218.600 C 212.808 215.258,210.259 214.141,208.353 216.047 C 207.012 217.388,207.822 230.670,209.675 237.711 L 210.493 240.821 209.614 243.555 C 208.854 245.920,208.530 246.405,207.212 247.145 L 205.688 248.002 203.744 246.257 C 202.675 245.298,201.080 244.141,200.200 243.687 C 197.274 242.175,192.083 236.024,191.036 232.830 C 190.538 231.309,189.390 228.834,188.485 227.332 C 187.580 225.829,186.662 223.790,186.444 222.800 C 185.729 219.548,184.800 211.489,184.800 208.535 C 184.800 203.048,185.219 203.256,173.204 202.775 C 168.032 202.568,162.990 202.226,162.000 202.017 C 160.984 201.801,149.836 201.620,136.400 201.602 L 112.600 201.568 110.400 200.384 C 109.190 199.733,107.994 199.200,107.742 199.200 C 106.640 199.200,101.288 196.615,100.156 195.537 C 98.764 194.210,97.200 189.394,97.200 186.432 C 97.200 185.513,96.945 184.267,96.633 183.663 C 96.135 182.700,96.155 182.129,96.799 178.983 C 98.626 170.062,98.922 169.384,101.960 167.183 C 102.839 166.546,103.745 165.676,103.974 165.248 C 104.799 163.708,106.850 162.904,111.200 162.416 C 116.897 161.777,118.836 161.306,119.906 160.300 C 121.201 159.084,122.800 153.722,122.800 150.598 C 122.800 147.840,123.163 146.702,124.847 144.180 C 125.895 142.610,127.585 138.123,127.614 136.834 C 127.649 135.299,129.917 132.556,137.041 125.438 C 143.913 118.572,145.688 117.136,149.065 115.714 C 150.745 115.006,152.835 113.954,153.710 113.375 C 157.921 110.588,157.342 110.645,183.000 110.481 C 211.007 110.301,215.220 110.610,221.572 113.305 C 231.692 117.599,242.629 117.631,252.014 113.394 C 258.916 110.278,284.750 108.900,297.000 110.995 M168.600 149.031 C 167.280 149.967,165.498 151.348,164.641 152.101 L 163.082 153.470 164.077 155.635 C 167.727 163.576,173.896 163.915,176.379 156.311 L 177.258 153.622 176.199 152.234 C 175.617 151.471,174.209 150.055,173.070 149.088 L 171.000 147.330 168.600 149.031 M172.517 156.461 C 171.439 160.479,170.838 160.496,169.020 156.561 C 168.236 154.863,167.640 153.439,167.697 153.398 C 167.754 153.357,168.517 152.846,169.393 152.262 L 170.985 151.200 172.146 152.361 L 173.306 153.522 172.517 156.461 " stroke="none" fill="#11556d" fill-rule="evenodd"></path><path id="path4" d="M0.000 223.000 L 0.000 446.000 200.000 446.000 L 400.000 446.000 400.000 223.000 L 400.000 0.000 200.000 0.000 L 0.000 0.000 0.000 223.000 M301.928 108.782 C 306.265 109.135,307.274 109.689,308.802 112.550 C 309.353 113.582,310.391 114.886,311.110 115.448 C 314.605 118.184,314.646 124.839,311.185 127.751 C 310.449 128.371,309.546 129.807,308.972 131.272 C 307.897 134.014,306.787 135.416,305.418 135.760 C 304.755 135.926,304.286 136.605,303.670 138.294 C 302.597 141.234,300.718 144.202,299.527 144.837 C 298.164 145.563,297.699 146.312,296.816 149.209 C 296.226 151.142,295.599 152.229,294.393 153.407 C 290.806 156.910,290.892 161.167,294.632 165.235 C 296.218 166.960,296.782 167.914,297.004 169.249 C 297.399 171.616,298.473 173.618,299.920 174.683 C 301.406 175.775,302.160 177.719,303.357 183.542 C 304.137 187.335,304.464 188.225,305.338 188.942 C 307.582 190.783,308.546 194.900,309.001 204.600 C 309.332 211.637,309.874 214.962,310.830 215.827 C 312.205 217.071,311.954 228.224,310.415 234.312 C 309.486 237.986,309.138 240.558,308.807 246.200 C 308.256 255.561,307.762 257.680,305.666 259.675 C 303.871 261.382,303.385 262.615,303.011 266.400 C 302.564 270.923,301.142 273.674,298.847 274.454 C 298.610 274.534,298.050 276.034,297.602 277.787 C 296.527 281.997,295.664 283.575,293.715 284.893 C 292.463 285.740,292.000 286.379,291.661 287.725 C 291.095 289.969,289.924 291.431,288.188 292.059 C 287.390 292.347,286.800 292.833,286.800 293.202 C 286.800 296.928,275.549 308.230,270.313 309.764 C 269.935 309.875,269.371 310.573,269.061 311.315 C 268.359 312.996,266.743 314.299,264.942 314.637 C 264.141 314.788,263.280 315.304,262.883 315.873 C 260.933 318.664,260.352 319.113,257.312 320.180 C 255.206 320.919,253.682 321.763,252.600 322.790 C 250.591 324.695,250.151 324.911,246.062 326.011 C 243.509 326.697,242.305 327.270,240.945 328.448 C 238.900 330.217,236.599 330.981,231.422 331.608 C 225.942 332.272,223.956 332.785,222.057 334.027 C 217.260 337.162,197.554 338.548,176.804 337.209 L 171.007 336.835 169.904 337.892 C 168.923 338.832,168.800 339.236,168.800 341.517 C 168.800 344.583,167.945 348.122,166.413 351.400 C 165.797 352.720,164.928 355.641,164.483 357.891 C 163.475 362.992,162.674 364.632,160.429 366.194 C 159.398 366.912,158.496 367.923,158.270 368.613 C 157.633 370.566,156.894 371.348,154.695 372.400 C 153.544 372.950,152.415 373.786,152.186 374.257 C 151.061 376.569,149.239 377.560,144.224 378.588 C 142.090 379.025,140.874 379.487,140.517 379.997 C 137.176 384.767,126.890 383.759,125.170 378.493 C 124.902 377.672,124.349 376.373,123.941 375.606 C 122.894 373.636,122.815 344.763,123.847 341.200 C 124.197 339.990,124.916 337.053,125.445 334.673 C 126.554 329.687,127.056 328.561,128.887 326.953 C 129.617 326.312,130.723 324.920,131.345 323.859 C 131.966 322.797,134.033 320.354,135.938 318.430 C 138.808 315.528,142.400 310.767,142.400 309.864 C 142.400 309.739,141.583 309.276,140.585 308.835 C 139.042 308.152,138.616 307.695,137.741 305.783 C 136.887 303.918,136.428 303.411,135.055 302.819 C 133.063 301.958,132.258 301.088,131.622 299.107 C 131.298 298.098,130.612 297.256,129.506 296.507 C 127.299 295.014,126.497 293.280,125.560 287.968 C 125.075 285.225,124.461 283.048,123.983 282.376 C 122.805 280.722,122.766 246.117,123.940 244.192 C 124.345 243.527,124.810 242.274,124.973 241.406 C 125.764 237.186,128.063 235.756,133.343 236.196 C 137.283 236.524,139.657 237.551,140.818 239.428 C 141.293 240.198,141.993 240.800,142.412 240.800 C 145.767 240.800,151.600 243.965,151.600 245.785 C 151.600 246.310,152.768 247.219,155.000 248.432 C 155.749 248.839,156.802 250.152,157.800 251.924 C 158.680 253.486,159.882 255.135,160.471 255.588 C 162.310 257.004,163.196 258.961,164.037 263.471 C 164.964 268.435,166.035 272.279,167.529 276.000 C 168.484 278.380,168.585 279.185,168.719 285.497 L 168.866 292.394 169.933 293.237 C 172.149 294.989,179.531 293.634,182.473 290.936 C 183.830 289.692,185.026 289.029,186.813 288.533 C 189.104 287.895,190.937 286.670,191.828 285.178 C 192.033 284.836,193.320 283.778,194.689 282.828 C 199.475 279.504,205.898 272.724,207.417 269.390 C 208.477 267.064,209.107 266.216,210.366 265.422 C 211.982 264.401,212.337 263.672,213.006 260.000 C 213.425 257.703,214.915 255.054,216.268 254.200 C 217.881 253.183,217.922 253.020,218.429 245.600 C 219.161 234.881,218.397 225.907,216.706 225.370 C 215.629 225.028,212.921 220.702,212.602 218.813 C 211.752 213.782,210.400 216.572,210.400 223.357 C 210.400 231.591,210.953 234.608,212.842 236.676 C 215.052 239.096,215.397 242.441,213.824 246.205 C 211.863 250.899,202.592 251.747,200.530 247.421 C 200.157 246.640,199.608 246.000,199.310 246.000 C 198.085 246.000,195.537 244.285,194.632 242.851 C 194.100 242.008,192.953 240.755,192.084 240.066 C 190.468 238.786,189.966 237.887,189.203 234.901 C 188.916 233.777,188.355 232.897,187.545 232.301 C 185.271 230.628,184.416 227.971,183.588 220.000 C 183.036 214.696,182.882 214.076,181.737 212.562 C 180.956 211.531,180.800 210.845,180.800 208.452 C 180.800 204.060,181.545 204.142,137.400 203.683 L 110.200 203.400 108.302 202.465 C 107.257 201.951,106.087 201.138,105.702 200.659 C 105.316 200.179,103.721 199.289,102.158 198.681 C 98.479 197.249,97.864 196.531,96.611 192.204 C 95.884 189.691,95.218 188.244,94.402 187.402 C 91.313 184.215,91.358 177.461,94.495 173.460 C 95.159 172.612,95.943 171.122,96.236 170.148 C 96.823 168.197,98.006 166.000,98.469 166.000 C 98.632 166.000,99.770 165.003,100.999 163.784 C 103.742 161.062,104.010 160.959,110.146 160.245 C 118.256 159.301,119.430 158.057,120.214 149.573 C 120.773 143.524,121.729 140.589,123.631 139.086 C 124.458 138.432,124.964 137.427,125.565 135.248 C 126.012 133.624,126.788 131.796,127.289 131.185 C 130.658 127.076,135.131 122.427,139.091 118.915 C 143.376 115.115,144.425 114.464,147.281 113.833 C 147.875 113.702,149.228 112.714,150.287 111.638 C 153.417 108.458,151.699 108.600,187.000 108.600 C 223.284 108.600,224.895 108.742,227.456 112.166 C 229.667 115.121,244.000 114.845,247.200 111.786 C 249.898 109.207,252.311 108.752,265.200 108.392 C 276.509 108.077,295.780 108.281,301.928 108.782 M169.393 152.262 C 168.517 152.846,167.754 153.357,167.697 153.398 C 167.640 153.439,168.236 154.863,169.020 156.561 C 170.838 160.496,171.439 160.479,172.517 156.461 L 173.306 153.522 172.146 152.361 L 170.985 151.200 169.393 152.262 " stroke="none" fill="#1c1c1c" fill-rule="evenodd"></path></g></svg>